<?xml version="1.0" standalone="no"?>
<!DOCTYPE svg PUBLIC "-//W3C//DTD SVG 20010904//EN"
 "http://www.w3.org/TR/2001/REC-SVG-20010904/DTD/svg10.dtd">
<svg version="1.0" xmlns="http://www.w3.org/2000/svg"
 width="456.000000pt" height="456.000000pt" viewBox="0 0 456.000000 456.000000"
 preserveAspectRatio="xMidYMid meet">
<metadata>
Created by potrace 1.14, written by Peter Selinger 2001-2017
</metadata>
<g transform="translate(0.000000,456.000000) scale(0.100000,-0.100000)"
fill="#000000" stroke="none">
<path d="M2089 4556 c-2 -2 -33 -7 -69 -10 -36 -4 -74 -9 -85 -11 -11 -2 -36
-7 -56 -9 -122 -17 -341 -83 -499 -151 -561 -240 -1014 -715 -1231 -1291 -52
-140 -98 -307 -115 -424 -3 -19 -9 -60 -13 -90 -21 -145 -18 -490 5 -603 2
-12 7 -38 10 -57 12 -77 15 -92 34 -174 30 -124 93 -301 151 -423 64 -134 194
-351 229 -383 3 -3 17 -21 30 -40 33 -47 70 -89 170 -193 336 -349 808 -596
1269 -663 25 -4 54 -8 65 -10 96 -17 435 -24 521 -10 22 4 60 9 85 12 47 5 77
10 120 19 14 2 36 7 50 9 163 31 364 103 555 198 88 43 329 195 367 230 7 7
43 37 78 67 77 64 212 201 267 268 21 26 46 57 56 68 76 84 243 373 306 530
18 44 36 89 41 100 29 67 81 267 100 385 7 41 15 84 17 95 10 39 11 442 2 525
-98 898 -707 1651 -1559 1928 -101 33 -231 67 -292 76 -21 3 -55 9 -75 12 -21
3 -49 8 -63 11 -28 6 -466 14 -471 9z"/>
</g>
</svg>
