<?xml version="1.0" encoding="UTF-8"?><svg id="uuid-c45c8a9b-c244-4a13-b9fd-9912a25931b2" xmlns="http://www.w3.org/2000/svg" xmlns:xlink="http://www.w3.org/1999/xlink" viewBox="0 0 455.44 455.41"><defs><linearGradient id="uuid-8fb98b73-1cef-4193-be9f-74d51275a171" x1="161.56" y1="-135.95" x2="617" y2="-135.95" gradientTransform="translate(-161.56 91.75) scale(1 -1)" gradientUnits="userSpaceOnUse"><stop offset="0" stop-color="#fb1626"/><stop offset="1" stop-color="#bb0d5a"/></linearGradient></defs><g id="uuid-67d28f19-8689-4e77-bc3a-941979e8e3ae"><path d="M455.44,227.7c0,5.77-.21,11.48-.63,17.13-1.48,20.03-5.62,39.77-12.3,58.7-31.28,88.47-115.64,151.88-214.81,151.88C101.94,455.41,0,353.46,0,227.7c0-5.6.21-11.16.6-16.67,0-.33.05-.67.08-1,1.46-19.08,5.33-37.89,11.52-56l.81-2.33C44.3,63.3,128.62,0,227.7,0c125.74,0,227.74,102,227.74,227.7Z" fill="url(#uuid-8fb98b73-1cef-4193-be9f-74d51275a171)"/><path d="M454.77,244.83c-1.48,20.03-5.62,39.77-12.3,58.7l-283,51.57-6,1.09c-2.02.37-4.06.57-6.11.57-1.87,0-3.73-.17-5.57-.52h-.07c-6.95-1.32-13.35-4.68-18.38-9.66-10.56-10.42-13.45-26.35-7.22-39.82.83-1.78,1.8-3.49,2.9-5.11h0l138-138L.98,210h-.3c1.46-19.08,5.33-37.89,11.52-56l.81-2.33,292.68-53.41,8.64-1.56c3.3-.6,6.69-.62,10-.05,14.66,2.64,26.17,14.06,28.91,28.71,2.04,11.28-1.47,22.86-9.44,31.11h0l-1.35,1.35-133,131.72,245.32-44.71Z" fill="#fff"/></g></svg>